<svg width="26" height="26" viewBox="0 0 26 26" fill="none" xmlns="http://www.w3.org/2000/svg">
<g id="google">
<path id="vector" d="M24.3753 13.2513C24.3753 12.316 24.2978 11.6335 24.1302 10.9258H13.2324V15.1471H19.6292C19.5003 16.1962 18.8038 17.776 17.2562 18.8377L17.2345 18.979L20.6802 21.5949L20.9189 21.6183C23.1113 19.634 24.3753 16.7144 24.3753 13.2513" fill="#4285F4"/>
<path id="vector_2" d="M13.2323 24.3754C16.3662 24.3754 18.9971 23.3642 20.9188 21.6201L17.2561 18.8394C16.2759 19.5093 14.9604 19.9769 13.2323 19.9769C10.1629 19.9769 7.55778 17.9927 6.62912 15.25L6.493 15.2613L2.91014 17.9787L2.86328 18.1064C4.77198 21.8222 8.69261 24.3754 13.2323 24.3754Z" fill="#95C84A"/>
<path id="vector_3" d="M6.63087 15.2511C6.38583 14.5433 6.24402 13.7849 6.24402 13.0013C6.24402 12.2177 6.38583 11.4594 6.61797 10.7516L6.61148 10.6009L2.98371 7.83984L2.86502 7.89517C2.07835 9.43714 1.62695 11.1687 1.62695 13.0013C1.62695 14.834 2.07835 16.5654 2.86502 18.1074L6.63087 15.2511" fill="#FBBC05"/>
<path id="vector_4" d="M13.2324 6.0233C15.4119 6.0233 16.8821 6.94594 17.7204 7.71696L20.9962 4.5825C18.9844 2.74987 16.3663 1.625 13.2324 1.625C8.69265 1.625 4.77199 4.17804 2.86328 7.89384L6.61625 10.7503C7.5578 8.00763 10.1629 6.0233 13.2324 6.0233" fill="#EB4335"/>
</g>
</svg>
